<?xml version="1.0" encoding="UTF-8" standalone="no"?>
<svg
   xmlns:dc="http://purl.org/dc/elements/1.1/"
   xmlns:cc="http://creativecommons.org/ns#"
   xmlns:rdf="http://www.w3.org/1999/02/22-rdf-syntax-ns#"
   xmlns:svg="http://www.w3.org/2000/svg"
   xmlns="http://www.w3.org/2000/svg"
   xmlns:sodipodi="http://sodipodi.sourceforge.net/DTD/sodipodi-0.dtd"
   xmlns:inkscape="http://www.inkscape.org/namespaces/inkscape"
   sodipodi:docname="Radioactive Symbol.svg"
   inkscape:version="0.92.4 (5da689c313, 2019-01-14)"
   id="svg8"
   version="1.1"
   viewBox="0 0 63.499996 105.8333"
   height="105.8333mm"
   width="63.499996mm">
  <defs
     id="defs2" />
  <sodipodi:namedview
     inkscape:document-rotation="0"
     inkscape:window-maximized="1"
     inkscape:window-y="-8"
     inkscape:window-x="-8"
     inkscape:window-height="837"
     inkscape:window-width="1600"
     inkscape:snap-global="true"
     inkscape:guide-bbox="true"
     showguides="true"
     inkscape:snap-page="true"
     inkscape:snap-text-baseline="true"
     inkscape:snap-center="true"
     inkscape:snap-object-midpoints="true"
     inkscape:snap-midpoints="true"
     inkscape:snap-smooth-nodes="true"
     inkscape:snap-intersection-paths="true"
     inkscape:object-paths="true"
     inkscape:snap-bbox-midpoints="true"
     inkscape:snap-bbox-edge-midpoints="true"
     inkscape:bbox-nodes="true"
     inkscape:bbox-paths="true"
     inkscape:snap-bbox="true"
     showgrid="false"
     inkscape:current-layer="layer1"
     inkscape:document-units="mm"
     inkscape:cy="199.99993"
     inkscape:cx="119.99999"
     inkscape:zoom="1.5950005"
     inkscape:pageshadow="2"
     inkscape:pageopacity="0.0"
     borderopacity="1.0"
     bordercolor="#666666"
     pagecolor="#ffffff"
     id="base">
    <inkscape:grid
       id="grid815"
       type="xygrid"
       originx="105.83333"
       originy="-108.47917" />
  </sodipodi:namedview>
  <metadata
     id="metadata5">
    <rdf:RDF>
      <cc:Work
         rdf:about="">
        <dc:format>image/svg+xml</dc:format>
        <dc:type
           rdf:resource="http://purl.org/dc/dcmitype/StillImage" />
        <dc:title />
      </cc:Work>
    </rdf:RDF>
  </metadata>
  <g
     id="layer1"
     inkscape:groupmode="layer"
     inkscape:label="Camada 1"
     transform="translate(105.83333,-82.687531)">
    <rect
       y="82.687531"
       x="-105.83333"
       height="105.8333"
       width="63.499996"
       id="rect881"
       style="opacity:1;fill:#ffffff;fill-opacity:1;stroke:none;stroke-width:0.13229164;stroke-linecap:round;stroke-miterlimit:4;stroke-dasharray:none;stroke-opacity:1;paint-order:stroke fill markers" />
    <path
       sodipodi:nodetypes="cc"
       inkscape:connector-curvature="0"
       id="path840"
       d="m -99.929137,175.29166 h 25.217022"
       style="fill:none;stroke:#000000;stroke-width:0.26458332px;stroke-linecap:butt;stroke-linejoin:miter;stroke-opacity:1" />
    <path
       inkscape:connector-curvature="0"
       id="path842"
       d="m -100.54167,173.96875 v 2.64583"
       style="fill:none;stroke:#000000;stroke-width:0.26458332px;stroke-linecap:butt;stroke-linejoin:miter;stroke-opacity:1" />
    <path
       sodipodi:nodetypes="cc"
       inkscape:connector-curvature="0"
       id="path840-6"
       d="m -99.887982,183.22916 h 51.547061"
       style="fill:none;stroke:#000000;stroke-width:0.26458332;stroke-linecap:butt;stroke-linejoin:miter;stroke-miterlimit:4;stroke-dasharray:none;stroke-opacity:1" />
    <path
       sodipodi:nodetypes="csccc"
       inkscape:connector-curvature="0"
       id="path878-5"
       d="m -88.38922,91.125672 c 4.241304,-2.342467 9.117898,-3.675655 14.305876,-3.675654 5.145858,10e-7 9.985368,1.311629 14.202448,3.618802 m 1.067891,0.613457 c 8.350309,5.03074 14.017586,14.062613 14.347754,24.441533"
       style="opacity:1;fill:none;fill-opacity:1;stroke:#020000;stroke-width:0.26458332;stroke-linecap:round;stroke-miterlimit:4;stroke-dasharray:none;stroke-opacity:1;paint-order:stroke fill markers" />
    <g
       style="font-style:normal;font-variant:normal;font-weight:normal;font-stretch:normal;font-size:2.21923995px;line-height:1.25;font-family:'GT America';-inkscape-font-specification:'GT America';letter-spacing:0px;word-spacing:0px;writing-mode:lr-tb;fill:#0000ff;stroke-width:0.26458299"
       id="text898"
       aria-label="Radius 10 units">
      <path
         id="path1021"
         style="font-style:normal;font-variant:normal;font-weight:normal;font-stretch:normal;font-family:'GT America';-inkscape-font-specification:'GT America';fill:#0000ff;stroke-width:0.26458299"
         d="m -93.51733,174.21262 h 0.237459 l -0.403902,-0.68353 c 0.26409,-0.0599 0.355079,-0.25299 0.355079,-0.43053 0,-0.2308 -0.108743,-0.4616 -0.521522,-0.4616 h -0.58366 v 1.57566 h 0.210828 v -0.65468 h 0.31957 z m -0.705718,-1.39813 h 0.348421 c 0.241897,0 0.324009,0.12206 0.324009,0.28407 0,0.15756 -0.07989,0.28184 -0.324009,0.28184 h -0.348421 z"
         inkscape:connector-curvature="0" />
      <path
         id="path1023"
         style="font-style:normal;font-variant:normal;font-weight:normal;font-stretch:normal;font-family:'GT America';-inkscape-font-specification:'GT America';fill:#0000ff;stroke-width:0.26458299"
         d="m -92.741844,174.23925 c 0.181978,0 0.32179,-0.0865 0.372832,-0.22858 0.0022,0.071 0.0089,0.14425 0.01775,0.20195 h 0.197512 c -0.02663,-0.0865 -0.03773,-0.20417 -0.03773,-0.37506 v -0.29959 c 0,-0.32401 -0.133154,-0.4616 -0.43719,-0.4616 -0.259651,0 -0.43719,0.14868 -0.452725,0.37505 h 0.201951 c 0.0089,-0.13982 0.102085,-0.21971 0.252993,-0.21971 0.170882,0 0.244117,0.0821 0.244117,0.28628 v 0.0178 l -0.20639,0.0244 c -0.181977,0.0222 -0.288501,0.0488 -0.372832,0.091 -0.09987,0.0555 -0.155347,0.15091 -0.155347,0.26187 0,0.19751 0.148689,0.32623 0.375052,0.32623 z m 0.04216,-0.15535 c -0.135373,0 -0.217485,-0.0666 -0.217485,-0.17532 0,-0.10874 0.07102,-0.16644 0.235239,-0.19085 l 0.301817,-0.0444 v 0.0555 c 0,0.21527 -0.126497,0.35508 -0.319571,0.35508 z"
         inkscape:connector-curvature="0" />
      <path
         id="path1025"
         style="font-style:normal;font-variant:normal;font-weight:normal;font-stretch:normal;font-family:'GT America';-inkscape-font-specification:'GT America';fill:#0000ff;stroke-width:0.26458299"
         d="m -91.483084,174.23925 c 0.1731,0 0.292939,-0.0843 0.359517,-0.23302 v 0.20639 h 0.177539 v -1.60895 h -0.188636 v 0.66355 c -0.07102,-0.13094 -0.179758,-0.19085 -0.326228,-0.19085 -0.277405,0 -0.472698,0.23967 -0.472698,0.58144 0,0.34842 0.181978,0.58144 0.450506,0.58144 z m 0.05104,-0.16645 c -0.188635,0 -0.301816,-0.15534 -0.301816,-0.41499 0,-0.26187 0.113181,-0.415 0.301816,-0.415 0.186416,0 0.301817,0.14869 0.301817,0.39058 v 0.0511 c 0,0.23746 -0.11762,0.38836 -0.301817,0.38836 z"
         inkscape:connector-curvature="0" />
      <path
         id="path1027"
         style="font-style:normal;font-variant:normal;font-weight:normal;font-stretch:normal;font-family:'GT America';-inkscape-font-specification:'GT America';fill:#0000ff;stroke-width:0.26458299"
         d="m -90.546704,172.89661 h 0.215266 v -0.23746 h -0.215266 z m 0.01332,1.31601 h 0.188635 V 173.103 h -0.188635 z"
         inkscape:connector-curvature="0" />
      <path
         id="path1029"
         style="font-style:normal;font-variant:normal;font-weight:normal;font-stretch:normal;font-family:'GT America';-inkscape-font-specification:'GT America';fill:#0000ff;stroke-width:0.26458299"
         d="m -89.597701,174.23925 c 0.155347,0 0.292939,-0.0999 0.343982,-0.23524 v 0.20861 h 0.177539 V 173.103 h -0.188635 v 0.59697 c 0,0.22636 -0.119839,0.37727 -0.297378,0.37727 -0.14647,0 -0.226363,-0.10208 -0.226363,-0.2885 V 173.103 h -0.188635 v 0.70793 c 0,0.25965 0.09987,0.42832 0.37949,0.42832 z"
         inkscape:connector-curvature="0" />
      <path
         id="path1031"
         style="font-style:normal;font-variant:normal;font-weight:normal;font-stretch:normal;font-family:'GT America';-inkscape-font-specification:'GT America';fill:#0000ff;stroke-width:0.26458299"
         d="m -88.309849,174.23925 c 0.270748,0 0.426094,-0.12872 0.426094,-0.33955 0,-0.17532 -0.08655,-0.29072 -0.306255,-0.31513 l -0.177539,-0.02 c -0.137593,-0.0155 -0.199731,-0.0732 -0.199731,-0.16866 0,-0.10653 0.08655,-0.16645 0.23302,-0.16645 0.150908,0 0.241897,0.0932 0.266309,0.22637 l 0.186416,-0.0422 c -0.02441,-0.20417 -0.195293,-0.33732 -0.448287,-0.33732 -0.26187,0 -0.421655,0.12649 -0.421655,0.32844 0,0.17088 0.104304,0.29516 0.324009,0.31957 l 0.179758,0.02 c 0.119839,0.0133 0.177539,0.0621 0.177539,0.1731 0,0.1043 -0.08211,0.16644 -0.230801,0.16644 -0.164223,0 -0.268528,-0.0843 -0.297378,-0.24634 l -0.190854,0.0333 c 0.03995,0.23746 0.215266,0.3684 0.479355,0.3684 z"
         inkscape:connector-curvature="0" />
      <path
         id="path1033"
         style="font-style:normal;font-variant:normal;font-weight:normal;font-stretch:normal;font-family:'GT America';-inkscape-font-specification:'GT America';fill:#0000ff;stroke-width:0.26458299"
         d="m -86.796535,174.21262 h 0.199732 v -1.54238 h -0.168662 c -0.03773,0.16201 -0.164224,0.25078 -0.312913,0.25078 h -0.04882 v 0.17976 h 0.07989 c 0.08433,0 0.20417,-0.0333 0.250774,-0.0976 z"
         inkscape:connector-curvature="0" />
      <path
         id="path1035"
         style="font-style:normal;font-variant:normal;font-weight:normal;font-stretch:normal;font-family:'GT America';-inkscape-font-specification:'GT America';fill:#0000ff;stroke-width:0.26458299"
         d="m -85.623598,174.2459 c 0.390586,0 0.594756,-0.31069 0.594756,-0.80336 0,-0.49489 -0.20417,-0.80558 -0.594756,-0.80558 -0.390586,0 -0.594756,0.31069 -0.594756,0.80558 0,0.49267 0.20417,0.80336 0.594756,0.80336 z m 0,-0.16644 c -0.266309,0 -0.395025,-0.24633 -0.395025,-0.63692 0,-0.39281 0.128716,-0.63914 0.395025,-0.63914 0.266309,0 0.395025,0.24633 0.395025,0.63914 0,0.39059 -0.128716,0.63692 -0.395025,0.63692 z"
         inkscape:connector-curvature="0" />
      <path
         id="path1037"
         style="font-style:normal;font-variant:normal;font-weight:normal;font-stretch:normal;font-family:'GT America';-inkscape-font-specification:'GT America';fill:#0000ff;stroke-width:0.26458299"
         d="m -83.793869,174.23925 c 0.155347,0 0.29294,-0.0999 0.343982,-0.23524 v 0.20861 h 0.17754 V 173.103 h -0.188636 v 0.59697 c 0,0.22636 -0.119839,0.37727 -0.297378,0.37727 -0.14647,0 -0.226362,-0.10208 -0.226362,-0.2885 V 173.103 h -0.188636 v 0.70793 c 0,0.25965 0.09987,0.42832 0.37949,0.42832 z"
         inkscape:connector-curvature="0" />
      <path
         id="path1039"
         style="font-style:normal;font-variant:normal;font-weight:normal;font-stretch:normal;font-family:'GT America';-inkscape-font-specification:'GT America';fill:#0000ff;stroke-width:0.26458299"
         d="m -82.87441,174.21262 h 0.188635 v -0.57923 c 0,-0.24633 0.113182,-0.39502 0.297379,-0.39502 0.162004,0 0.244116,0.0999 0.244116,0.29516 v 0.67909 h 0.188635 v -0.69019 c 0,-0.29738 -0.126496,-0.4505 -0.370613,-0.4505 -0.17532,0 -0.297378,0.0821 -0.370613,0.25077 v -0.2197 h -0.177539 z"
         inkscape:connector-curvature="0" />
      <path
         id="path1041"
         style="font-style:normal;font-variant:normal;font-weight:normal;font-stretch:normal;font-family:'GT America';-inkscape-font-specification:'GT America';fill:#0000ff;stroke-width:0.26458299"
         d="m -81.604727,172.89661 h 0.215266 v -0.23746 h -0.215266 z m 0.01331,1.31601 h 0.188636 V 173.103 h -0.188636 z"
         inkscape:connector-curvature="0" />
      <path
         id="path1043"
         style="font-style:normal;font-variant:normal;font-weight:normal;font-stretch:normal;font-family:'GT America';-inkscape-font-specification:'GT America';fill:#0000ff;stroke-width:0.26458299"
         d="m -81.16837,173.25834 h 0.20639 v 0.62139 c 0,0.20639 0.06214,0.35286 0.301816,0.35286 0.07102,0 0.115401,-0.007 0.164224,-0.02 v -0.1731 c -0.03773,0.009 -0.06658,0.0155 -0.1154,0.0155 -0.113182,0 -0.162005,-0.0555 -0.162005,-0.18198 v -0.61473 h 0.277405 V 173.103 h -0.277405 v -0.37062 l -0.188635,0.0799 v 0.29072 h -0.20639 z"
         inkscape:connector-curvature="0" />
      <path
         id="path1045"
         style="font-style:normal;font-variant:normal;font-weight:normal;font-stretch:normal;font-family:'GT America';-inkscape-font-specification:'GT America';fill:#0000ff;stroke-width:0.26458299"
         d="m -79.862,174.23925 c 0.270747,0 0.426094,-0.12872 0.426094,-0.33955 0,-0.17532 -0.08655,-0.29072 -0.306255,-0.31513 l -0.177539,-0.02 c -0.137593,-0.0155 -0.199732,-0.0732 -0.199732,-0.16866 0,-0.10653 0.08655,-0.16645 0.233021,-0.16645 0.150908,0 0.241897,0.0932 0.266308,0.22637 l 0.186417,-0.0422 c -0.02441,-0.20417 -0.195294,-0.33732 -0.448287,-0.33732 -0.26187,0 -0.421656,0.12649 -0.421656,0.32844 0,0.17088 0.104305,0.29516 0.324009,0.31957 l 0.179759,0.02 c 0.119839,0.0133 0.177539,0.0621 0.177539,0.1731 0,0.1043 -0.08211,0.16644 -0.230801,0.16644 -0.164224,0 -0.268528,-0.0843 -0.297378,-0.24634 l -0.190855,0.0333 c 0.03995,0.23746 0.215267,0.3684 0.479356,0.3684 z"
         inkscape:connector-curvature="0" />
    </g>
    <g
       style="font-style:normal;font-variant:normal;font-weight:normal;font-stretch:normal;font-size:2.21923995px;line-height:1.25;font-family:'GT America';-inkscape-font-specification:'GT America';letter-spacing:0px;word-spacing:0px;writing-mode:lr-tb;fill:#0000ff;stroke-width:0.26458299"
       id="text898-4"
       aria-label="Diameter 20 units">
      <path
         id="path989"
         style="font-style:normal;font-variant:normal;font-weight:normal;font-stretch:normal;font-family:'GT America';-inkscape-font-specification:'GT America';fill:#0000ff;stroke-width:0.26458299"
         d="m -82.300125,182.15012 h 0.512644 c 0.459383,0 0.752323,-0.33067 0.752323,-0.79005 0,-0.46826 -0.295159,-0.78561 -0.747884,-0.78561 h -0.517083 z m 0.210828,-0.17754 v -1.22059 h 0.301816 c 0.339544,0 0.52818,0.25744 0.52818,0.60808 0,0.33732 -0.193074,0.61251 -0.532618,0.61251 z"
         inkscape:connector-curvature="0" />
      <path
         id="path991"
         style="font-style:normal;font-variant:normal;font-weight:normal;font-stretch:normal;font-family:'GT America';-inkscape-font-specification:'GT America';fill:#0000ff;stroke-width:0.26458299"
         d="m -80.749223,180.83411 h 0.215266 v -0.23746 h -0.215266 z m 0.01332,1.31601 h 0.188636 v -1.10962 h -0.188636 z"
         inkscape:connector-curvature="0" />
      <path
         id="path993"
         style="font-style:normal;font-variant:normal;font-weight:normal;font-stretch:normal;font-family:'GT America';-inkscape-font-specification:'GT America';fill:#0000ff;stroke-width:0.26458299"
         d="m -79.871236,182.17675 c 0.181978,0 0.32179,-0.0865 0.372832,-0.22858 0.0022,0.071 0.0089,0.14425 0.01775,0.20195 h 0.197512 c -0.02663,-0.0865 -0.03773,-0.20417 -0.03773,-0.37506 v -0.29959 c 0,-0.32401 -0.133154,-0.4616 -0.43719,-0.4616 -0.259651,0 -0.43719,0.14868 -0.452725,0.37505 h 0.201951 c 0.0089,-0.13982 0.102085,-0.21971 0.252993,-0.21971 0.170882,0 0.244117,0.0821 0.244117,0.28628 v 0.0178 l -0.20639,0.0244 c -0.181977,0.0222 -0.288501,0.0488 -0.372832,0.091 -0.09987,0.0555 -0.155347,0.15091 -0.155347,0.26187 0,0.19751 0.148689,0.32623 0.375052,0.32623 z m 0.04216,-0.15535 c -0.135373,0 -0.217485,-0.0666 -0.217485,-0.17532 0,-0.10874 0.07102,-0.16644 0.235239,-0.19085 l 0.301817,-0.0444 v 0.0555 c 0,0.21527 -0.126497,0.35508 -0.319571,0.35508 z"
         inkscape:connector-curvature="0" />
      <path
         id="path995"
         style="font-style:normal;font-variant:normal;font-weight:normal;font-stretch:normal;font-family:'GT America';-inkscape-font-specification:'GT America';fill:#0000ff;stroke-width:0.26458299"
         d="m -78.950113,181.0405 v 1.10962 h 0.188636 v -0.64802 c 0,-0.20195 0.09543,-0.32623 0.250774,-0.32623 0.133154,0 0.208608,0.091 0.208608,0.25299 v 0.72126 h 0.188636 v -0.6569 c 0,-0.20195 0.09099,-0.31735 0.248555,-0.31735 0.139812,0 0.210827,0.0888 0.210827,0.26187 v 0.71238 h 0.188636 v -0.72791 c 0,-0.25966 -0.124278,-0.41278 -0.337325,-0.41278 -0.150908,0 -0.264089,0.0754 -0.337324,0.22636 -0.05104,-0.14647 -0.162005,-0.22636 -0.315132,-0.22636 -0.148689,0 -0.255213,0.0754 -0.317352,0.22414 v -0.19307 z"
         inkscape:connector-curvature="0" />
      <path
         id="path997"
         style="font-style:normal;font-variant:normal;font-weight:normal;font-stretch:normal;font-family:'GT America';-inkscape-font-specification:'GT America';fill:#0000ff;stroke-width:0.26458299"
         d="m -76.222702,181.51763 c 0,-0.33288 -0.173101,-0.50376 -0.472698,-0.50376 -0.317351,0 -0.503767,0.22414 -0.503767,0.59475 0,0.36618 0.188635,0.56813 0.505986,0.56813 0.224144,0 0.386148,-0.10653 0.463821,-0.30848 l -0.155346,-0.0688 c -0.04882,0.13537 -0.153128,0.21082 -0.295159,0.21082 -0.197513,0 -0.328448,-0.14203 -0.330667,-0.35951 h 0.78783 z m -0.190854,-0.02 h -0.596976 c 0.0044,-0.20861 0.115401,-0.33511 0.310694,-0.33511 0.181977,0 0.286282,0.10653 0.286282,0.3107 z"
         inkscape:connector-curvature="0" />
      <path
         id="path999"
         style="font-style:normal;font-variant:normal;font-weight:normal;font-stretch:normal;font-family:'GT America';-inkscape-font-specification:'GT America';fill:#0000ff;stroke-width:0.26458299"
         d="m -76.11278,181.19584 h 0.206389 v 0.62139 c 0,0.20639 0.06214,0.35286 0.301817,0.35286 0.07102,0 0.1154,-0.007 0.164224,-0.02 v -0.1731 c -0.03773,0.009 -0.06658,0.0155 -0.115401,0.0155 -0.113181,0 -0.162004,-0.0555 -0.162004,-0.18198 v -0.61473 h 0.277405 v -0.15534 h -0.277405 v -0.37062 l -0.188636,0.0799 v 0.29072 h -0.206389 z"
         inkscape:connector-curvature="0" />
      <path
         id="path1001"
         style="font-style:normal;font-variant:normal;font-weight:normal;font-stretch:normal;font-family:'GT America';-inkscape-font-specification:'GT America';fill:#0000ff;stroke-width:0.26458299"
         d="m -74.328546,181.51763 c 0,-0.33288 -0.173101,-0.50376 -0.472698,-0.50376 -0.317351,0 -0.503767,0.22414 -0.503767,0.59475 0,0.36618 0.188635,0.56813 0.505986,0.56813 0.224144,0 0.386148,-0.10653 0.463821,-0.30848 l -0.155346,-0.0688 c -0.04882,0.13537 -0.153128,0.21082 -0.295159,0.21082 -0.197513,0 -0.328448,-0.14203 -0.330667,-0.35951 h 0.78783 z m -0.190854,-0.02 h -0.596976 c 0.0044,-0.20861 0.1154,-0.33511 0.310694,-0.33511 0.181977,0 0.286282,0.10653 0.286282,0.3107 z"
         inkscape:connector-curvature="0" />
      <path
         id="path1003"
         style="font-style:normal;font-variant:normal;font-weight:normal;font-stretch:normal;font-family:'GT America';-inkscape-font-specification:'GT America';fill:#0000ff;stroke-width:0.26458299"
         d="m -73.842186,181.29349 v -0.25299 h -0.17532 v 1.10962 h 0.188636 v -0.47492 c 0,-0.13316 0.0044,-0.28184 0.110962,-0.38837 0.05326,-0.0533 0.128715,-0.0866 0.244116,-0.0866 h 0.0089 v -0.1842 c -0.01332,-0.002 -0.02663,-0.002 -0.03995,-0.002 -0.168663,0 -0.284063,0.12427 -0.337325,0.27962 z"
         inkscape:connector-curvature="0" />
      <path
         id="path1006"
         style="font-style:normal;font-variant:normal;font-weight:normal;font-stretch:normal;font-family:'GT America';-inkscape-font-specification:'GT America';fill:#0000ff;stroke-width:0.26458299"
         d="m -72.852232,182.15012 h 1.011974 v -0.17976 h -0.743446 c 0.150909,-0.10431 0.259652,-0.19308 0.379491,-0.30404 0.237458,-0.2197 0.346201,-0.40834 0.346201,-0.62582 0,-0.2996 -0.179758,-0.46604 -0.479356,-0.46604 -0.310693,0 -0.49711,0.17532 -0.49711,0.44828 0,0.04 0.0044,0.0799 0.01553,0.12428 l 0.199732,0.02 c -0.0111,-0.0555 -0.01775,-0.10208 -0.01775,-0.14203 0,-0.16866 0.108742,-0.2774 0.288501,-0.2774 0.177539,0 0.281843,0.10652 0.281843,0.29516 0,0.18419 -0.06658,0.31291 -0.26187,0.50154 -0.197512,0.18864 -0.397244,0.34842 -0.523741,0.44163 z"
         inkscape:connector-curvature="0" />
      <path
         id="path1008"
         style="font-style:normal;font-variant:normal;font-weight:normal;font-stretch:normal;font-family:'GT America';-inkscape-font-specification:'GT America';fill:#0000ff;stroke-width:0.26458299"
         d="m -71.08856,182.1834 c 0.390586,0 0.594756,-0.31069 0.594756,-0.80336 0,-0.49489 -0.20417,-0.80558 -0.594756,-0.80558 -0.390586,0 -0.594756,0.31069 -0.594756,0.80558 0,0.49267 0.20417,0.80336 0.594756,0.80336 z m 0,-0.16644 c -0.266309,0 -0.395025,-0.24633 -0.395025,-0.63692 0,-0.39281 0.128716,-0.63914 0.395025,-0.63914 0.266309,0 0.395025,0.24633 0.395025,0.63914 0,0.39059 -0.128716,0.63692 -0.395025,0.63692 z"
         inkscape:connector-curvature="0" />
      <path
         id="path1010"
         style="font-style:normal;font-variant:normal;font-weight:normal;font-stretch:normal;font-family:'GT America';-inkscape-font-specification:'GT America';fill:#0000ff;stroke-width:0.26458299"
         d="m -69.258831,182.17675 c 0.155347,0 0.29294,-0.0999 0.343982,-0.23524 v 0.20861 h 0.17754 v -1.10962 h -0.188636 v 0.59697 c 0,0.22636 -0.119839,0.37727 -0.297378,0.37727 -0.14647,0 -0.226362,-0.10208 -0.226362,-0.2885 v -0.68574 h -0.188636 v 0.70793 c 0,0.25965 0.09987,0.42832 0.37949,0.42832 z"
         inkscape:connector-curvature="0" />
      <path
         id="path1012"
         style="font-style:normal;font-variant:normal;font-weight:normal;font-stretch:normal;font-family:'GT America';-inkscape-font-specification:'GT America';fill:#0000ff;stroke-width:0.26458299"
         d="m -68.339372,182.15012 h 0.188635 v -0.57923 c 0,-0.24633 0.113182,-0.39502 0.297379,-0.39502 0.162004,0 0.244116,0.0999 0.244116,0.29516 v 0.67909 h 0.188635 v -0.69019 c 0,-0.29738 -0.126496,-0.4505 -0.370613,-0.4505 -0.17532,0 -0.297378,0.0821 -0.370613,0.25077 v -0.2197 h -0.177539 z"
         inkscape:connector-curvature="0" />
      <path
         id="path1014"
         style="font-style:normal;font-variant:normal;font-weight:normal;font-stretch:normal;font-family:'GT America';-inkscape-font-specification:'GT America';fill:#0000ff;stroke-width:0.26458299"
         d="m -67.069689,180.83411 h 0.215266 v -0.23746 h -0.215266 z m 0.01331,1.31601 h 0.188636 v -1.10962 h -0.188636 z"
         inkscape:connector-curvature="0" />
      <path
         id="path1016"
         style="font-style:normal;font-variant:normal;font-weight:normal;font-stretch:normal;font-family:'GT America';-inkscape-font-specification:'GT America';fill:#0000ff;stroke-width:0.26458299"
         d="m -66.633332,181.19584 h 0.20639 v 0.62139 c 0,0.20639 0.06214,0.35286 0.301816,0.35286 0.07102,0 0.115401,-0.007 0.164224,-0.02 v -0.1731 c -0.03773,0.009 -0.06658,0.0155 -0.1154,0.0155 -0.113182,0 -0.162005,-0.0555 -0.162005,-0.18198 v -0.61473 h 0.277405 v -0.15534 h -0.277405 v -0.37062 l -0.188635,0.0799 v 0.29072 h -0.20639 z"
         inkscape:connector-curvature="0" />
      <path
         id="path1018"
         style="font-style:normal;font-variant:normal;font-weight:normal;font-stretch:normal;font-family:'GT America';-inkscape-font-specification:'GT America';fill:#0000ff;stroke-width:0.26458299"
         d="m -65.326963,182.17675 c 0.270748,0 0.426094,-0.12872 0.426094,-0.33955 0,-0.17532 -0.08655,-0.29072 -0.306255,-0.31513 l -0.177539,-0.02 c -0.137593,-0.0155 -0.199732,-0.0732 -0.199732,-0.16866 0,-0.10653 0.08655,-0.16645 0.233021,-0.16645 0.150908,0 0.241897,0.0932 0.266308,0.22637 l 0.186417,-0.0422 c -0.02441,-0.20417 -0.195294,-0.33732 -0.448287,-0.33732 -0.26187,0 -0.421656,0.12649 -0.421656,0.32844 0,0.17088 0.104305,0.29516 0.32401,0.31957 l 0.179758,0.02 c 0.119839,0.0133 0.177539,0.0621 0.177539,0.1731 0,0.1043 -0.08211,0.16644 -0.230801,0.16644 -0.164224,0 -0.268528,-0.0843 -0.297378,-0.24634 l -0.190855,0.0333 c 0.03995,0.23746 0.215267,0.3684 0.479356,0.3684 z"
         inkscape:connector-curvature="0" />
    </g>
    <path
       sodipodi:nodetypes="cccc"
       inkscape:connector-curvature="0"
       id="rect920-1-7-2-9-6"
       d="m -49.217616,184.47642 -2e-5,-2.49452 1.24728,1.24726 z"
       style="opacity:1;fill:#000000;fill-opacity:1;stroke:none;stroke-width:0.26458332;stroke-linecap:round;stroke-miterlimit:4;stroke-dasharray:none;stroke-opacity:1;paint-order:stroke fill markers" />
    <path
       sodipodi:nodetypes="cccc"
       inkscape:connector-curvature="0"
       id="rect920-1-7-2-9-6-2"
       d="m -98.949061,184.47642 2e-5,-2.49452 -1.247279,1.24726 z"
       style="opacity:1;fill:#000000;fill-opacity:1;stroke:none;stroke-width:0.26458332;stroke-linecap:round;stroke-miterlimit:4;stroke-dasharray:none;stroke-opacity:1;paint-order:stroke fill markers" />
    <path
       sodipodi:nodetypes="cccc"
       inkscape:connector-curvature="0"
       id="rect920-1-7-2-9-6-5"
       d="m -98.949058,176.53892 2e-5,-2.49452 -1.247272,1.24726 z"
       style="opacity:1;fill:#000000;fill-opacity:1;stroke:none;stroke-width:0.26458332;stroke-linecap:round;stroke-miterlimit:4;stroke-dasharray:none;stroke-opacity:1;paint-order:stroke fill markers" />
    <path
       sodipodi:nodetypes="cccc"
       inkscape:connector-curvature="0"
       id="rect920-1-7-2-9-6-8"
       d="m -75.675948,176.53892 -2e-5,-2.49452 1.24728,1.24726 z"
       style="opacity:1;fill:#000000;fill-opacity:1;stroke:none;stroke-width:0.26458332;stroke-linecap:round;stroke-miterlimit:4;stroke-dasharray:none;stroke-opacity:1;paint-order:stroke fill markers" />
    <path
       sodipodi:nodetypes="cccc"
       inkscape:connector-curvature="0"
       id="rect920-1-7-2-9-6-5-3"
       d="m -72.490726,168.60143 2e-5,-2.49452 -1.247272,1.24726 z"
       style="opacity:1;fill:#000000;fill-opacity:1;stroke:none;stroke-width:0.26458332;stroke-linecap:round;stroke-miterlimit:4;stroke-dasharray:none;stroke-opacity:1;paint-order:stroke fill markers" />
    <g
       transform="matrix(-1,0,0,1,-156.10417,5.2916653)"
       id="g904">
      <path
         style="fill:none;stroke:#000000;stroke-width:0.26458332;stroke-linecap:butt;stroke-linejoin:miter;stroke-miterlimit:4;stroke-dasharray:none;stroke-opacity:1"
         d="m -82.020833,160.73959 v 2.64583"
         id="path842-9-8"
         inkscape:connector-curvature="0" />
    </g>
    <path
       sodipodi:nodetypes="cccc"
       inkscape:connector-curvature="0"
       id="rect920-1-7-2-9-6-5-3-5"
       d="m -70.384276,168.60143 -2e-5,-2.49452 1.247272,1.24726 z"
       style="opacity:1;fill:#000000;fill-opacity:1;stroke:none;stroke-width:0.26458332;stroke-linecap:round;stroke-miterlimit:4;stroke-dasharray:none;stroke-opacity:1;paint-order:stroke fill markers" />
    <path
       sodipodi:nodetypes="cc"
       inkscape:connector-curvature="0"
       id="path921"
       d="m -73.462974,167.35417 h 3.974684"
       style="fill:none;stroke:#000000;stroke-width:0.26458332px;stroke-linecap:butt;stroke-linejoin:miter;stroke-opacity:1" />
    <g
       style="font-style:normal;font-variant:normal;font-weight:normal;font-stretch:normal;font-size:2.21923995px;line-height:1.25;font-family:'GT America';-inkscape-font-specification:'GT America';letter-spacing:0px;word-spacing:0px;writing-mode:lr-tb;fill:#0000ff;stroke-width:0.26458299"
       id="text898-4-6"
       aria-label="2 units">
      <path
         id="path1059"
         style="font-style:normal;font-variant:normal;font-weight:normal;font-stretch:normal;font-family:'GT America';-inkscape-font-specification:'GT America';fill:#0000ff;stroke-width:0.26458299"
         d="m -72.133462,162.69475 h 1.011973 v -0.17976 h -0.743445 c 0.150908,-0.1043 0.259651,-0.19307 0.37949,-0.30404 0.237458,-0.2197 0.346201,-0.40834 0.346201,-0.62582 0,-0.2996 -0.179758,-0.46604 -0.479356,-0.46604 -0.310693,0 -0.49711,0.17532 -0.49711,0.44828 0,0.0399 0.0044,0.0799 0.01553,0.12428 l 0.199732,0.02 c -0.0111,-0.0555 -0.01775,-0.10208 -0.01775,-0.14203 0,-0.16866 0.108743,-0.2774 0.288501,-0.2774 0.177539,0 0.281843,0.10652 0.281843,0.29516 0,0.18419 -0.06658,0.31291 -0.26187,0.50155 -0.197512,0.18863 -0.397244,0.34842 -0.52374,0.44162 z"
         inkscape:connector-curvature="0" />
      <path
         id="path1061"
         style="font-style:normal;font-variant:normal;font-weight:normal;font-stretch:normal;font-family:'GT America';-inkscape-font-specification:'GT America';fill:#0000ff;stroke-width:0.26458299"
         d="m -73.373507,165.49543 c 0.155346,0 0.292939,-0.0999 0.343982,-0.23524 v 0.20861 h 0.177539 v -1.10962 h -0.188635 v 0.59697 c 0,0.22637 -0.119839,0.37727 -0.297379,0.37727 -0.146469,0 -0.226362,-0.10208 -0.226362,-0.2885 v -0.68574 h -0.188635 v 0.70794 c 0,0.25965 0.09986,0.42831 0.37949,0.42831 z"
         inkscape:connector-curvature="0" />
      <path
         id="path1063"
         style="font-style:normal;font-variant:normal;font-weight:normal;font-stretch:normal;font-family:'GT America';-inkscape-font-specification:'GT America';fill:#0000ff;stroke-width:0.26458299"
         d="m -72.454049,165.4688 h 0.188636 v -0.57922 c 0,-0.24634 0.113181,-0.39503 0.297378,-0.39503 0.162005,0 0.244116,0.0999 0.244116,0.29516 v 0.67909 h 0.188636 v -0.69019 c 0,-0.29737 -0.126497,-0.4505 -0.370613,-0.4505 -0.17532,0 -0.297378,0.0821 -0.370613,0.25077 v -0.2197 h -0.17754 z"
         inkscape:connector-curvature="0" />
      <path
         id="path1065"
         style="font-style:normal;font-variant:normal;font-weight:normal;font-stretch:normal;font-family:'GT America';-inkscape-font-specification:'GT America';fill:#0000ff;stroke-width:0.26458299"
         d="m -71.184366,164.15279 h 0.215266 v -0.23746 h -0.215266 z m 0.01332,1.31601 h 0.188635 v -1.10962 h -0.188635 z"
         inkscape:connector-curvature="0" />
      <path
         id="path1067"
         style="font-style:normal;font-variant:normal;font-weight:normal;font-stretch:normal;font-family:'GT America';-inkscape-font-specification:'GT America';fill:#0000ff;stroke-width:0.26458299"
         d="m -70.748008,164.51452 h 0.206389 v 0.62139 c 0,0.20639 0.06214,0.35286 0.301817,0.35286 0.07102,0 0.115401,-0.007 0.164224,-0.02 v -0.1731 c -0.03773,0.009 -0.06658,0.0155 -0.115401,0.0155 -0.113181,0 -0.162004,-0.0555 -0.162004,-0.18198 v -0.61473 h 0.277405 v -0.15534 h -0.277405 v -0.37062 l -0.188636,0.0799 v 0.29072 h -0.206389 z"
         inkscape:connector-curvature="0" />
      <path
         id="path1069"
         style="font-style:normal;font-variant:normal;font-weight:normal;font-stretch:normal;font-family:'GT America';-inkscape-font-specification:'GT America';fill:#0000ff;stroke-width:0.26458299"
         d="m -69.441638,165.49543 c 0.270747,0 0.426094,-0.12872 0.426094,-0.33954 0,-0.17532 -0.08655,-0.29073 -0.306255,-0.31514 l -0.17754,-0.02 c -0.137592,-0.0155 -0.199731,-0.0732 -0.199731,-0.16866 0,-0.10653 0.08655,-0.16645 0.23302,-0.16645 0.150908,0 0.241897,0.0932 0.266309,0.22637 l 0.186416,-0.0422 c -0.02441,-0.20417 -0.195293,-0.33732 -0.448286,-0.33732 -0.261871,0 -0.421656,0.12649 -0.421656,0.32844 0,0.17089 0.104304,0.29516 0.324009,0.31958 l 0.179758,0.02 c 0.119839,0.0133 0.17754,0.0621 0.17754,0.1731 0,0.1043 -0.08211,0.16644 -0.230801,0.16644 -0.164224,0 -0.268528,-0.0843 -0.297378,-0.24633 l -0.190855,0.0333 c 0.03995,0.23746 0.215266,0.3684 0.479356,0.3684 z"
         inkscape:connector-curvature="0" />
    </g>
    <path
       sodipodi:nodetypes="cccc"
       inkscape:connector-curvature="0"
       id="rect920-1-7-2-9-6-5-3-8"
       d="m -67.858806,160.21724 1.3e-5,-1.60115 -0.800581,0.80058 z"
       style="opacity:1;fill:#000000;fill-opacity:1;stroke:none;stroke-width:0.26458332;stroke-linecap:round;stroke-miterlimit:4;stroke-dasharray:none;stroke-opacity:1;paint-order:stroke fill markers" />
    <path
       sodipodi:nodetypes="cccc"
       inkscape:connector-curvature="0"
       id="rect920-1-7-2-9-6-5-3-5-1"
       d="m -67.075277,160.21724 -1.3e-5,-1.60115 0.800581,0.80058 z"
       style="opacity:1;fill:#000000;fill-opacity:1;stroke:none;stroke-width:0.26458332;stroke-linecap:round;stroke-miterlimit:4;stroke-dasharray:none;stroke-opacity:1;paint-order:stroke fill markers" />
    <path
       sodipodi:nodetypes="cc"
       inkscape:connector-curvature="0"
       id="path921-3"
       d="m -68.481491,159.41667 h 2.025478"
       style="fill:none;stroke:#000000;stroke-width:0.26458332px;stroke-linecap:butt;stroke-linejoin:miter;stroke-opacity:1" />
    <g
       style="font-style:normal;font-variant:normal;font-weight:normal;font-stretch:normal;font-size:2.21923995px;line-height:1.25;font-family:'GT America';-inkscape-font-specification:'GT America';letter-spacing:0px;word-spacing:0px;writing-mode:lr-tb;fill:#0000ff;stroke-width:0.26458299"
       id="text898-4-6-7"
       aria-label="1 unit">
      <path
         id="path1048"
         style="font-style:normal;font-variant:normal;font-weight:normal;font-stretch:normal;font-family:'GT America';-inkscape-font-specification:'GT America';fill:#0000ff;stroke-width:0.26458299"
         d="m -65.168328,160.18674 h 0.199732 v -1.54237 h -0.168662 c -0.03773,0.162 -0.164224,0.25077 -0.312913,0.25077 h -0.04882 v 0.17976 h 0.07989 c 0.08433,0 0.20417,-0.0333 0.250774,-0.0977 z"
         inkscape:connector-curvature="0" />
      <path
         id="path1050"
         style="font-style:normal;font-variant:normal;font-weight:normal;font-stretch:normal;font-family:'GT America';-inkscape-font-specification:'GT America';fill:#0000ff;stroke-width:0.26458299"
         d="m -63.578693,160.21337 c 0.155347,0 0.29294,-0.0999 0.343982,-0.23524 v 0.20861 h 0.177539 v -1.10962 h -0.188635 v 0.59697 c 0,0.22637 -0.119839,0.37727 -0.297378,0.37727 -0.14647,0 -0.226363,-0.10208 -0.226363,-0.2885 v -0.68574 h -0.188635 v 0.70793 c 0,0.25966 0.09987,0.42832 0.37949,0.42832 z"
         inkscape:connector-curvature="0" />
      <path
         id="path1052"
         style="font-style:normal;font-variant:normal;font-weight:normal;font-stretch:normal;font-family:'GT America';-inkscape-font-specification:'GT America';fill:#0000ff;stroke-width:0.26458299"
         d="m -62.659234,160.18674 h 0.188635 v -0.57922 c 0,-0.24634 0.113181,-0.39503 0.297378,-0.39503 0.162005,0 0.244117,0.0999 0.244117,0.29516 v 0.67909 h 0.188635 v -0.69019 c 0,-0.29737 -0.126497,-0.4505 -0.370613,-0.4505 -0.17532,0 -0.297378,0.0821 -0.370613,0.25077 v -0.2197 h -0.177539 z"
         inkscape:connector-curvature="0" />
      <path
         id="path1054"
         style="font-style:normal;font-variant:normal;font-weight:normal;font-stretch:normal;font-family:'GT America';-inkscape-font-specification:'GT America';fill:#0000ff;stroke-width:0.26458299"
         d="m -61.389552,158.87073 h 0.215267 v -0.23746 h -0.215267 z m 0.01332,1.31601 h 0.188635 v -1.10962 h -0.188635 z"
         inkscape:connector-curvature="0" />
      <path
         id="path1056"
         style="font-style:normal;font-variant:normal;font-weight:normal;font-stretch:normal;font-family:'GT America';-inkscape-font-specification:'GT America';fill:#0000ff;stroke-width:0.26458299"
         d="m -60.953194,159.23246 h 0.20639 v 0.62139 c 0,0.20639 0.06214,0.35286 0.301816,0.35286 0.07102,0 0.115401,-0.007 0.164224,-0.02 v -0.1731 c -0.03773,0.009 -0.06658,0.0155 -0.1154,0.0155 -0.113182,0 -0.162005,-0.0555 -0.162005,-0.18198 v -0.61473 h 0.277405 v -0.15534 h -0.277405 v -0.37062 l -0.188635,0.0799 v 0.29072 h -0.20639 z"
         inkscape:connector-curvature="0" />
    </g>
    <path
       inkscape:transform-center-y="-11.442493"
       inkscape:transform-center-x="-15.211732"
       sodipodi:nodetypes="ccccc"
       inkscape:connector-curvature="0"
       id="path860"
       transform="scale(0.26458333)"
       d="m -230.0625,356.02539 -34.95117,60.53711 c 9.27996,5.35127 15.00238,15.24472 15.01367,25.95703 h 70 c -0.0516,-35.70071 -19.13185,-68.66611 -50.0625,-86.49414 z"
       style="opacity:1;fill:#00ff00;fill-opacity:1;stroke:none;stroke-width:0.99999994;stroke-linecap:round;stroke-miterlimit:4;stroke-dasharray:none;stroke-opacity:1;paint-order:stroke fill markers" />
    <circle
       r="5.2916665"
       cy="117.08333"
       cx="-74.083336"
       id="path878"
       style="opacity:1;fill:#00ff00;fill-opacity:1;stroke:none;stroke-width:0.26458332;stroke-linecap:round;stroke-miterlimit:4;stroke-dasharray:none;stroke-opacity:1;paint-order:stroke fill markers" />
    <path
       inkscape:transform-center-y="16.653397"
       inkscape:transform-center-x="0.0082519687"
       sodipodi:nodetypes="ccccc"
       inkscape:connector-curvature="0"
       id="path860-1"
       d="m -60.870702,139.96828 -9.247468,-16.01713 c -2.453834,1.41846 -5.477808,1.42084 -7.93388,0.006 l -9.260415,16.03951 c 8.187139,4.71108 18.264856,4.70016 26.441763,-0.0287 z"
       style="opacity:1;fill:#00ff00;fill-opacity:1;stroke:none;stroke-width:0.26458332;stroke-linecap:round;stroke-miterlimit:4;stroke-dasharray:none;stroke-opacity:1;paint-order:stroke fill markers" />
    <path
       inkscape:transform-center-y="-11.456633"
       inkscape:transform-center-x="15.196906"
       sodipodi:nodetypes="ccccc"
       inkscape:connector-curvature="0"
       id="path860-3"
       d="m -100.5086,117.08333 18.494981,2e-5 c -0.0015,-2.83431 1.50842,-5.45434 3.961743,-6.87394 l -9.260413,-16.039506 c -8.173512,4.734683 -13.202891,13.467746 -13.196031,22.913586 z"
       style="opacity:1;fill:#00ff00;fill-opacity:1;stroke:none;stroke-width:0.26458332;stroke-linecap:round;stroke-miterlimit:4;stroke-dasharray:none;stroke-opacity:1;paint-order:stroke fill markers" />
    <path
       inkscape:transform-center-y="-26.363832"
       inkscape:transform-center-x="-13.80085"
       sodipodi:nodetypes="cccc"
       inkscape:connector-curvature="0"
       id="rect920-1-7-2-9-6-1-0"
       d="m -61.12206,91.829154 1.138997,-2.219306 0.540159,1.679164 z"
       style="opacity:1;fill:#000000;fill-opacity:1;stroke:none;stroke-width:0.26458332;stroke-linecap:round;stroke-miterlimit:4;stroke-dasharray:none;stroke-opacity:1;paint-order:stroke fill markers" />
    <path
       inkscape:transform-center-y="-26.356472"
       inkscape:transform-center-x="13.762937"
       sodipodi:nodetypes="cccc"
       inkscape:connector-curvature="0"
       id="rect920-1-7-2-9-6-1-9-6"
       d="m -87.006978,91.837111 -1.13666,-2.220502 -0.541925,1.678594 z"
       style="opacity:1;fill:#000000;fill-opacity:1;stroke:none;stroke-width:0.26458332;stroke-linecap:round;stroke-miterlimit:4;stroke-dasharray:none;stroke-opacity:1;paint-order:stroke fill markers" />
    <path
       inkscape:transform-center-y="-24.893772"
       inkscape:transform-center-x="-15.844464"
       sodipodi:nodetypes="cccc"
       inkscape:connector-curvature="0"
       id="rect920-1-7-2-9-6-1-9-8"
       d="m -58.727512,93.238187 1.350616,-2.097253 -1.723948,0.373322 z"
       style="opacity:1;fill:#000000;fill-opacity:1;stroke:none;stroke-width:0.26458332;stroke-linecap:round;stroke-miterlimit:4;stroke-dasharray:none;stroke-opacity:1;paint-order:stroke fill markers" />
    <path
       inkscape:connector-curvature="0"
       id="path1005"
       d="m -87.312369,94.169948 -1.602957,-2.776389"
       style="fill:none;stroke:#1e0000;stroke-width:0.26458332px;stroke-linecap:butt;stroke-linejoin:miter;stroke-opacity:1" />
    <path
       inkscape:connector-curvature="0"
       id="path1007"
       d="m -60.854285,94.169948 1.602949,-2.776389"
       style="fill:none;stroke:#000000;stroke-width:0.26458332px;stroke-linecap:butt;stroke-linejoin:miter;stroke-opacity:1" />
    <path
       inkscape:connector-curvature="0"
       id="path1011"
       d="m -47.624999,117.08333 h 3.174574"
       style="fill:none;stroke:#000000;stroke-width:0.26458332px;stroke-linecap:butt;stroke-linejoin:miter;stroke-opacity:1" />
    <g
       style="fill:#000000"
       transform="rotate(2.6264275,-50.408969,76.159926)"
       id="g1029">
      <path
         style="opacity:1;fill:#000000;fill-opacity:1;stroke:none;stroke-width:0.26458332;stroke-linecap:round;stroke-miterlimit:4;stroke-dasharray:none;stroke-opacity:1;paint-order:stroke fill markers"
         d="m -43.900561,115.34223 2.491402,-0.12471 -1.183349,1.30806 z"
         id="rect920-1-7-2-9-6-1-94-3"
         inkscape:connector-curvature="0"
         sodipodi:nodetypes="cccc"
         inkscape:transform-center-x="-29.596264"
         inkscape:transform-center-y="-0.889682" />
    </g>
    <g
       inkscape:transform-center-y="-31.675277"
       inkscape:transform-center-x="-0.052147314"
       style="font-style:normal;font-variant:normal;font-weight:normal;font-stretch:normal;font-size:2.76508999px;line-height:1.25;font-family:'GT America';-inkscape-font-specification:'GT America';letter-spacing:0px;word-spacing:0px;writing-mode:lr-tb;fill:#0000ff;stroke-width:0.26458299"
       id="text1037"
       aria-label="60°">
      <path
         id="path1072"
         style="font-style:normal;font-variant:normal;font-weight:normal;font-stretch:normal;font-family:'GT America';-inkscape-font-specification:'GT America';fill:#0000ff;stroke-width:0.26458299"
         d="m -75.42641,85.095782 c -0.221207,0 -0.398173,0.102309 -0.486656,0.279275 0.01106,-0.497717 0.168671,-0.752105 0.470066,-0.752105 0.185261,0 0.295864,0.105073 0.340106,0.323516 l 0.248858,-0.0553 c -0.05807,-0.306925 -0.265449,-0.475596 -0.586199,-0.475596 -0.459005,0 -0.716159,0.373287 -0.716159,1.045204 0,0.633206 0.235033,0.959487 0.691273,0.959487 0.378817,0 0.633205,-0.270979 0.633205,-0.669152 0,-0.398173 -0.235032,-0.655327 -0.594494,-0.655327 z m -0.03595,1.117097 c -0.243328,0 -0.414764,-0.201852 -0.442415,-0.519837 0.06636,-0.248858 0.218443,-0.389878 0.431355,-0.389878 0.240562,0 0.392642,0.174201 0.392642,0.45071 0,0.279274 -0.149315,0.459005 -0.381582,0.459005 z"
         inkscape:connector-curvature="0" />
      <path
         id="path1074"
         style="font-style:normal;font-variant:normal;font-weight:normal;font-stretch:normal;font-family:'GT America';-inkscape-font-specification:'GT America';fill:#0000ff;stroke-width:0.26458299"
         d="m -73.84076,86.420261 c 0.486655,0 0.741044,-0.387113 0.741044,-1.000963 0,-0.616615 -0.254389,-1.003728 -0.741044,-1.003728 -0.486656,0 -0.741045,0.387113 -0.741045,1.003728 0,0.61385 0.254389,1.000963 0.741045,1.000963 z m 0,-0.207382 c -0.331811,0 -0.492186,-0.306925 -0.492186,-0.793581 0,-0.489421 0.160375,-0.796346 0.492186,-0.796346 0.33181,0 0.492186,0.306925 0.492186,0.796346 0,0.486656 -0.160376,0.793581 -0.492186,0.793581 z"
         inkscape:connector-curvature="0" />
      <path
         id="path1076"
         style="font-style:normal;font-variant:normal;font-weight:normal;font-stretch:normal;font-family:'GT America';-inkscape-font-specification:'GT America';fill:#0000ff;stroke-width:0.26458299"
         d="m -72.392631,85.363996 c 0.273744,0 0.486656,-0.188026 0.486656,-0.483891 0,-0.295864 -0.212912,-0.48389 -0.486656,-0.48389 -0.273744,0 -0.486656,0.188026 -0.486656,0.48389 0,0.295865 0.212912,0.483891 0.486656,0.483891 z m 0,-0.204617 c -0.154845,0 -0.268214,-0.113368 -0.268214,-0.279274 0,-0.16867 0.113369,-0.279274 0.268214,-0.279274 0.154845,0 0.268214,0.110604 0.268214,0.279274 0,0.165906 -0.113369,0.279274 -0.268214,0.279274 z"
         inkscape:connector-curvature="0" />
    </g>
    <g
       style="stroke:#010000;stroke-width:0.05291667;stroke-miterlimit:4;stroke-dasharray:none;stroke-opacity:1"
       id="g992"
       transform="translate(-1.8416269e-4,1.8415019e-4)">
      <path
         d="m -100.54167,140.89583 h 52.916671 M -100.54167,138.25 h 52.916671 m -52.916671,-2.64583 h 52.916671 m -52.916671,-2.64584 h 52.916671 m -52.916671,-2.64583 h 52.916671 m -52.916671,-2.64583 h 52.916671 m -52.916671,-2.64584 h 52.916671 M -100.54167,122.375 h 52.916671 m -52.916671,-2.64583 h 52.916671 m -52.916671,-2.64584 h 52.916671 m -52.916671,-2.64583 h 52.916671 m -52.916671,-2.64583 h 52.916671 m -52.916671,-2.64584 h 52.916671 M -100.54167,106.5 h 52.916671 m -52.916671,-2.64583 h 52.916671 m -52.916671,-2.64584 h 52.916671 M -100.54167,98.5625 h 52.916671 m -52.916671,-2.645833 h 52.916671 m -2.645834,-2.645839 v 50.270832 m -2.645833,-50.270832 v 50.270832 m -2.645833,-50.270827 v 50.270827 m -2.645834,-50.270827 v 50.270827 m -2.645833,-50.270827 v 50.270827 m -2.645833,-50.270827 v 50.270827 m -2.645833,-50.270827 v 50.270827 m -2.645834,-50.270827 v 50.270827 m -2.645833,-50.270827 v 50.270827 m -2.645833,-50.270832 v 50.270832 0 0 m -2.645834,-50.270827 v 50.270827 m -2.645833,-50.270827 v 50.270827 m -2.645833,-50.270827 v 50.270827 m -2.645834,-50.270827 v 50.270827 m -2.645833,-50.270827 v 50.270827 m -2.645833,-50.270827 v 50.270827 m -2.645834,-50.270827 v 50.270827 m -2.645833,-50.270827 v 50.270827 m -2.645833,-50.270827 v 50.270827 0 m -2.645838,1e-5 V 93.270828 l 52.916671,5e-6 v 50.270827 z"
         style="fill:none;stroke:#010000;stroke-width:0.05291667;stroke-linecap:butt;stroke-linejoin:miter;stroke-miterlimit:4;stroke-dasharray:none;stroke-opacity:1"
         id="path952"
         inkscape:connector-curvature="0" />
    </g>
    <path
       sodipodi:nodetypes="cc"
       inkscape:connector-curvature="0"
       id="path842-0"
       d="m -100.54167,117.08333 -1e-5,67.46875"
       style="fill:none;stroke:#ff0000;stroke-width:0.26458332;stroke-linecap:butt;stroke-linejoin:miter;stroke-miterlimit:4;stroke-dasharray:none;stroke-opacity:1" />
    <path
       sodipodi:nodetypes="cc"
       inkscape:connector-curvature="0"
       id="path842-3-7"
       d="m -47.624999,117.08333 -10e-7,67.46875"
       style="fill:none;stroke:#ff0000;stroke-width:0.26458332;stroke-linecap:butt;stroke-linejoin:miter;stroke-miterlimit:4;stroke-dasharray:none;stroke-opacity:1" />
    <path
       sodipodi:nodetypes="cc"
       inkscape:connector-curvature="0"
       id="path842-9-1"
       d="m -66.145833,117.08333 v 43.65625"
       style="fill:none;stroke:#ff0000;stroke-width:0.26458332;stroke-linecap:butt;stroke-linejoin:miter;stroke-miterlimit:4;stroke-dasharray:none;stroke-opacity:1" />
    <path
       sodipodi:nodetypes="cc"
       inkscape:connector-curvature="0"
       id="path842-9"
       d="m -68.791667,117.08333 v 51.59376"
       style="fill:none;stroke:#ff0000;stroke-width:0.26458332;stroke-linecap:butt;stroke-linejoin:miter;stroke-miterlimit:4;stroke-dasharray:none;stroke-opacity:1" />
    <path
       sodipodi:nodetypes="cc"
       inkscape:connector-curvature="0"
       id="path842-3"
       d="m -74.083333,117.08333 v 59.53125"
       style="fill:none;stroke:#ff0000;stroke-width:0.26458332;stroke-linecap:butt;stroke-linejoin:miter;stroke-miterlimit:4;stroke-dasharray:none;stroke-opacity:1" />
    <g
       inkscape:transform-center-y="-16.051703"
       inkscape:transform-center-x="-27.457669"
       style="font-style:normal;font-variant:normal;font-weight:normal;font-stretch:normal;font-size:2.76507998px;line-height:1.25;font-family:'GT America';-inkscape-font-specification:'GT America';letter-spacing:0px;word-spacing:0px;writing-mode:lr-tb;fill:#0000ff;stroke-width:0.26458299"
       id="text1037-5"
       transform="rotate(60)"
       aria-label="60°">
      <path
         id="path1079"
         style="font-style:normal;font-variant:normal;font-weight:normal;font-stretch:normal;font-family:'GT America';-inkscape-font-specification:'GT America';fill:#0000ff;stroke-width:0.26458299"
         d="m 63.012559,90.712082 c -0.221206,0 -0.398171,0.102308 -0.486654,0.279273 0.01106,-0.497714 0.16867,-0.752102 0.470064,-0.752102 0.18526,0 0.295864,0.105073 0.340105,0.323515 l 0.248857,-0.0553 c -0.05807,-0.306924 -0.265448,-0.475594 -0.586197,-0.475594 -0.459003,0 -0.716156,0.373286 -0.716156,1.0452 0,0.633204 0.235032,0.959483 0.69127,0.959483 0.378816,0 0.633204,-0.270978 0.633204,-0.669149 0,-0.398172 -0.235032,-0.655324 -0.594493,-0.655324 z m -0.03595,1.117092 c -0.243327,0 -0.414762,-0.201851 -0.442412,-0.519835 0.06636,-0.248857 0.218441,-0.389876 0.431352,-0.389876 0.240562,0 0.392641,0.1742 0.392641,0.450708 0,0.279273 -0.149314,0.459003 -0.381581,0.459003 z"
         inkscape:connector-curvature="0" />
      <path
         id="path1081"
         style="font-style:normal;font-variant:normal;font-weight:normal;font-stretch:normal;font-family:'GT America';-inkscape-font-specification:'GT America';fill:#0000ff;stroke-width:0.26458299"
         d="m 64.598203,92.036555 c 0.486654,0 0.741042,-0.387111 0.741042,-1.000959 0,-0.616613 -0.254388,-1.003724 -0.741042,-1.003724 -0.486654,0 -0.741041,0.387111 -0.741041,1.003724 0,0.613848 0.254387,1.000959 0.741041,1.000959 z m 0,-0.207381 c -0.331809,0 -0.492184,-0.306924 -0.492184,-0.793578 0,-0.489419 0.160375,-0.796343 0.492184,-0.796343 0.33181,0 0.492184,0.306924 0.492184,0.796343 0,0.486654 -0.160374,0.793578 -0.492184,0.793578 z"
         inkscape:connector-curvature="0" />
      <path
         id="path1083"
         style="font-style:normal;font-variant:normal;font-weight:normal;font-stretch:normal;font-family:'GT America';-inkscape-font-specification:'GT America';fill:#0000ff;stroke-width:0.26458299"
         d="m 66.046327,90.980295 c 0.273743,0 0.486654,-0.188026 0.486654,-0.483889 0,-0.295864 -0.212911,-0.483889 -0.486654,-0.483889 -0.273743,0 -0.486654,0.188025 -0.486654,0.483889 0,0.295863 0.212911,0.483889 0.486654,0.483889 z m 0,-0.204616 c -0.154844,0 -0.268212,-0.113369 -0.268212,-0.279273 0,-0.16867 0.113368,-0.279273 0.268212,-0.279273 0.154845,0 0.268213,0.110603 0.268213,0.279273 0,0.165904 -0.113368,0.279273 -0.268213,0.279273 z"
         inkscape:connector-curvature="0" />
    </g>
  </g>
</svg>
